<mxfile host="app.diagrams.net" modified="2024-07-12T00:47:41.575Z" agent="Mozilla/5.0 (Windows NT 10.0; Win64; x64) AppleWebKit/537.36 (KHTML, like Gecko) Chrome/126.0.0.0 Safari/537.36" etag="Ye_mOQIhH06rXUiyZQO0" version="24.6.5" type="device">
  <diagram name="Page-1" id="q8tA1Ux1HLS-OUuBvYiP">
    <mxGraphModel dx="1626" dy="784" grid="1" gridSize="10" guides="1" tooltips="1" connect="1" arrows="1" fold="1" page="1" pageScale="1" pageWidth="850" pageHeight="1100" math="0" shadow="0">
      <root>
        <mxCell id="0" />
        <mxCell id="1" parent="0" />
        <mxCell id="5qf46BzxWVRJ9d9bCFL5-1" style="edgeStyle=orthogonalEdgeStyle;rounded=0;orthogonalLoop=1;jettySize=auto;html=1;exitX=0.5;exitY=0.5;exitDx=0;exitDy=0;exitPerimeter=0;" edge="1" parent="1" source="5qf46BzxWVRJ9d9bCFL5-2">
          <mxGeometry relative="1" as="geometry">
            <mxPoint x="420" y="450" as="targetPoint" />
          </mxGeometry>
        </mxCell>
        <mxCell id="5qf46BzxWVRJ9d9bCFL5-2" value="Actor" style="shape=umlActor;verticalLabelPosition=bottom;verticalAlign=top;html=1;" vertex="1" parent="1">
          <mxGeometry x="410" y="370" width="20" height="40" as="geometry" />
        </mxCell>
        <mxCell id="5qf46BzxWVRJ9d9bCFL5-3" value="Generate Report&lt;div&gt;of all pets&lt;/div&gt;" style="ellipse;whiteSpace=wrap;html=1;" vertex="1" parent="1">
          <mxGeometry x="360" y="450" width="120" height="60" as="geometry" />
        </mxCell>
        <mxCell id="5qf46BzxWVRJ9d9bCFL5-4" value="Compile report" style="ellipse;whiteSpace=wrap;html=1;" vertex="1" parent="1">
          <mxGeometry x="530" y="480" width="120" height="60" as="geometry" />
        </mxCell>
        <mxCell id="5qf46BzxWVRJ9d9bCFL5-5" value="Retrieve pet info" style="ellipse;whiteSpace=wrap;html=1;" vertex="1" parent="1">
          <mxGeometry x="520" y="380" width="120" height="60" as="geometry" />
        </mxCell>
        <mxCell id="5qf46BzxWVRJ9d9bCFL5-6" value="" style="endArrow=classic;html=1;rounded=0;exitX=0.95;exitY=0.8;exitDx=0;exitDy=0;exitPerimeter=0;entryX=0;entryY=0.5;entryDx=0;entryDy=0;" edge="1" parent="1" source="5qf46BzxWVRJ9d9bCFL5-3" target="5qf46BzxWVRJ9d9bCFL5-4">
          <mxGeometry width="50" height="50" relative="1" as="geometry">
            <mxPoint x="400" y="430" as="sourcePoint" />
            <mxPoint x="450" y="380" as="targetPoint" />
          </mxGeometry>
        </mxCell>
        <mxCell id="5qf46BzxWVRJ9d9bCFL5-7" value="" style="endArrow=classic;html=1;rounded=0;exitX=0.942;exitY=0.233;exitDx=0;exitDy=0;exitPerimeter=0;entryX=0;entryY=0.667;entryDx=0;entryDy=0;entryPerimeter=0;" edge="1" parent="1" source="5qf46BzxWVRJ9d9bCFL5-3" target="5qf46BzxWVRJ9d9bCFL5-5">
          <mxGeometry width="50" height="50" relative="1" as="geometry">
            <mxPoint x="400" y="430" as="sourcePoint" />
            <mxPoint x="450" y="380" as="targetPoint" />
          </mxGeometry>
        </mxCell>
      </root>
    </mxGraphModel>
  </diagram>
</mxfile>
